<svg width="823" height="290" viewBox="0 0 823 290" fill="none" xmlns="http://www.w3.org/2000/svg">
<g clip-path="url(#clip0_3_17)">
<path d="M161 182.6C146.6 182.6 133.5 173.1 126.3 158.9L118.5 172.5L139.6 209H181.8L183.5 206.1C182.9 191.3 174.1 183.2 161.1 182.7L161 182.6Z" fill="white"/>
<path d="M160.6 166.8C161 166.8 161.4 166.8 161.8 166.8C174.1 166.5 181.8 152.7 183.5 138.8L181.8 135.9H139.6L137.9 138.8C139.7 153.1 148.3 166.4 160.6 166.8V166.8Z" fill="white"/>
<path d="M210.5 152.5L191.3 119.2H134.4L135.7 126.2H187.3L197.8 144.3C197.2 152.2 194.7 157.3 194.7 157.3C191.8 163.2 188 168.3 183.5 172.3C188.1 176.3 191.9 181.4 194.7 187.3C194.7 187.3 195.5 188.9 196.3 191.7C198.4 198.4 199.5 204.8 200 210.6L210.7 192L220.2 175.8H242.2V168.8H220.2L210.6 152.5H210.5Z" fill="white"/>
<path d="M107.4 172.3L121.5 147.9C120.3 144.4 119.6 141.1 119 138.2L101.3 168.8H0V175.8H101.3L130 225.5H171.5L175.9 218.5H134.1L107.5 172.4L107.4 172.3Z" fill="white"/>
<path d="M313.8 182C313.8 190.9 308.3 197.6 298.5 197.6C288.7 197.6 283.1 190.9 283.1 181.9V136.2H265.8V181.9C265.8 200.7 280.1 212.4 298.5 212.4C316.9 212.4 331.2 199.6 331.2 181.9V136.2H313.9V182H313.8Z" fill="white"/>
<path d="M358.6 151.1H378.8V210.6H396.1V151.1H404.6V136.2H358.6V151.1Z" fill="white"/>
<path d="M450.4 181.2H480.5V166.4H450.4V151.1H485.5V136.2H433.1V210.6H486V195.7H450.4V181.2Z" fill="white"/>
<path d="M593.7 173.3C593.7 151.6 575.4 134.3 553 134.3C530.6 134.3 512.3 151.6 512.3 173.3C512.3 195 530.5 212.3 553 212.3C575.5 212.3 566.8 210.5 572.7 207.4L584.6 219.3L596.1 207.6L585.4 196.9C590.7 190.3 593.8 182.1 593.8 173.2L593.7 173.3ZM553 197.4C540.1 197.4 529.6 187 529.6 173.3C529.6 159.6 540.1 149.2 553 149.2C565.9 149.2 576.4 159.5 576.4 173.3C576.4 187.1 566.1 197.4 553 197.4Z" fill="white"/>
<path d="M631.9 194.5C626.3 194.5 622.7 198.5 622.7 203.4C622.7 208.3 626.4 212.2 631.9 212.2C637.4 212.2 641.2 208.3 641.2 203.4C641.2 198.5 637.5 194.5 631.9 194.5Z" fill="white"/>
<path d="M723.5 180.7L688 136.2H672.9V210.6H690.2V166L725.8 210.6H740.7V136.2H723.5V180.7Z" fill="white"/>
<path d="M791.7 195.7V136.2H774.3V210.6H822.9V195.7H791.7Z" fill="white"/>
<path d="M198.6 114.6L256.6 33.8H272.1L281.8 16.9L272.2 0H252.7L243 16.9L250.7 30.2L193 110.6L198.7 114.6H198.6ZM256.3 6.3H268.5L274.6 16.9L268.5 27.5H256.3L250.2 16.9L256.3 6.3V6.3Z" fill="white"/>
<path d="M85.3 285.1L91 289.1L127.4 236.4L121.7 232.3L85.3 285.1Z" fill="white"/>
</g>
<defs>
<clipPath id="clip0_3_17">
<rect width="822.9" height="289.1" fill="white"/>
</clipPath>
</defs>
</svg>
